<svg xmlns="http://www.w3.org/2000/svg" version="1.1" xmlns:xlink="http://www.w3.org/1999/xlink" viewBox="0 0 700 700" style="overflow: hidden; display: block;" width="700" height="700"><defs><linearGradient id="two-3" x1="350" y1="-350" x2="350" y2="350" spreadMethod="pad" gradientUnits="userSpaceOnUse"><stop offset="0%" stop-color="hsl(205, 69%, 60%)" stop-opacity="1"></stop><stop offset="100%" stop-color="hsl(205, 69%, 80%)" stop-opacity="1"></stop></linearGradient></defs><g id="two-0" transform="matrix(1 0 0 1 0 0)" opacity="1"><path transform="matrix(1 0 0 1 350 350)" id="two-287" d="M 247.91457 102.689577 C 228.317342 136.111358 244.193281 189.461762 215.54354 215.54354 C 186.455947 242.023926 135.132096 223.487323 98.390896 237.536635 C 62.927909 251.097176 35.848927 284.666323 0 297.170965 C -40.809478 311.405922 -89.222526 328.203449 -129.928453 313.675032 C -170.32418 299.25733 -198.568436 256.874615 -219.358525 219.358524 C -238.533889 184.756233 -242.856294 142.319059 -249.395562 103.303024 C -255.048174 69.577161 -258.264616 34.189009 -257.55933 0 C -256.862776 -33.765779 -257.652939 -70.17375 -245.295958 -101.604913 C -232.876523 -133.194931 -207.163081 -159.261472 -184.775855 -184.775855 C -161.460659 -211.347832 -140.584335 -247.234976 -107.087059 -258.531029 C -73.401402 -269.890609 -35.541972 -246.089822 -0.000001 -246.819084 C 36.391263 -247.565773 73.380403 -270.490177 109.061772 -263.298412 C 145.362949 -255.981721 181.86273 -233.884798 204.860325 -204.860326 C 227.647177 -176.101825 219.494593 -129.956123 239.526899 -99.215291 C 266.248309 -58.209606 348.383284 -48.924192 349.770132 -0.000001 C 351.122587 47.710865 272.057298 61.515744 247.91457 102.689577 Z " fill="url(#two-3)" stroke="undefined" stroke-width="1" stroke-opacity="1" fill-opacity="1" visibility="visible" stroke-linecap="butt" stroke-linejoin="miter" stroke-miterlimit="4"></path></g></svg>